<svg xmlns="http://www.w3.org/2000/svg" viewBox="0 0 128 128">
  <circle cx="64" cy="64" r="62" fill="#9b4d97" stroke="#c9a227" stroke-width="3"/>
  <circle cx="64" cy="64" r="46" fill="#08532a" stroke="#ffffff" stroke-width="2"/>
  <path d="M 64 24 C 69 32 69 38 64 42 C 59 38 59 32 64 24 Z" fill="#c9a227"/>
  <!-- Open book -->
  <path d="M 64 54 C 54 48 40 50 30 54 L 30 76 C 40 72 54 70 64 76 Z" fill="#ffffff" stroke="#c9a227" stroke-width="1.5"/>
  <path d="M 64 54 C 74 48 88 50 98 54 L 98 76 C 88 72 74 70 64 76 Z" fill="#ffffff" stroke="#c9a227" stroke-width="1.5"/>
  <line x1="64" y1="52" x2="64" y2="76" stroke="#9a7610" stroke-width="2"/>
  <!-- Monogram text -->
  <text x="64" y="94" font-family="Arial, sans-serif" font-size="14" font-weight="900" fill="#ffffff" text-anchor="middle" letter-spacing="1">SSHS</text>
  <text x="64" y="108" font-family="Arial, sans-serif" font-size="9" font-weight="700" fill="#f5d76e" text-anchor="middle">2015</text>
</svg>